<svg width="207" height="39" viewBox="0 0 207 39" fill="none" xmlns="http://www.w3.org/2000/svg">
<path d="M33.0612 7.93875L25.5612 0.43875C25.4218 0.299499 25.2564 0.189078 25.0743 0.113796C24.8922 0.0385136 24.697 -0.000154479 24.5 4.63799e-07H9.5C8.70435 4.63799e-07 7.94129 0.316071 7.37868 0.87868C6.81607 1.44129 6.5 2.20435 6.5 3V6H3.5C2.70435 6 1.94129 6.31607 1.37868 6.87868C0.81607 7.44129 0.5 8.20435 0.5 9V36C0.5 36.7956 0.81607 37.5587 1.37868 38.1213C1.94129 38.6839 2.70435 39 3.5 39H24.5C25.2956 39 26.0587 38.6839 26.6213 38.1213C27.1839 37.5587 27.5 36.7956 27.5 36V33H30.5C31.2956 33 32.0587 32.6839 32.6213 32.1213C33.1839 31.5587 33.5 30.7956 33.5 30V9C33.5002 8.80296 33.4615 8.60782 33.3862 8.42573C33.3109 8.24363 33.2005 8.07816 33.0612 7.93875ZM18.5 31.5H9.5C9.10218 31.5 8.72065 31.342 8.43934 31.0607C8.15804 30.7794 8 30.3978 8 30C8 29.6022 8.15804 29.2206 8.43934 28.9393C8.72065 28.658 9.10218 28.5 9.5 28.5H18.5C18.8978 28.5 19.2794 28.658 19.5607 28.9393C19.842 29.2206 20 29.6022 20 30C20 30.3978 19.842 30.7794 19.5607 31.0607C19.2794 31.342 18.8978 31.5 18.5 31.5ZM18.5 25.5H9.5C9.10218 25.5 8.72065 25.342 8.43934 25.0607C8.15804 24.7794 8 24.3978 8 24C8 23.6022 8.15804 23.2206 8.43934 22.9393C8.72065 22.658 9.10218 22.5 9.5 22.5H18.5C18.8978 22.5 19.2794 22.658 19.5607 22.9393C19.842 23.2206 20 23.6022 20 24C20 24.3978 19.842 24.7794 19.5607 25.0607C19.2794 25.342 18.8978 25.5 18.5 25.5ZM30.5 30H27.5V15C27.5002 14.803 27.4615 14.6078 27.3862 14.4257C27.3109 14.2436 27.2005 14.0782 27.0612 13.9387L19.5613 6.43875C19.4218 6.2995 19.2564 6.18908 19.0743 6.1138C18.8922 6.03851 18.697 5.99985 18.5 6H9.5V3H23.8794L30.5 9.62062V30Z" fill="#175EE3"/>
<path d="M75.5568 15.875H70.5795C70.4886 15.2311 70.303 14.6591 70.0227 14.1591C69.7424 13.6515 69.3826 13.2197 68.9432 12.8636C68.5038 12.5076 67.9962 12.2348 67.4205 12.0455C66.8523 11.8561 66.2349 11.7614 65.5682 11.7614C64.3636 11.7614 63.3144 12.0606 62.4205 12.6591C61.5265 13.25 60.8333 14.1136 60.3409 15.25C59.8485 16.3788 59.6023 17.75 59.6023 19.3636C59.6023 21.0227 59.8485 22.4167 60.3409 23.5455C60.8409 24.6742 61.5379 25.5265 62.4318 26.1023C63.3258 26.678 64.3598 26.9659 65.5341 26.9659C66.1932 26.9659 66.803 26.8788 67.3636 26.7045C67.9318 26.5303 68.4356 26.2765 68.875 25.9432C69.3144 25.6023 69.678 25.1894 69.9659 24.7045C70.2614 24.2197 70.4659 23.6667 70.5795 23.0455L75.5568 23.0682C75.428 24.1364 75.1061 25.1667 74.5909 26.1591C74.0833 27.1439 73.3977 28.0265 72.5341 28.8068C71.678 29.5795 70.6553 30.1932 69.4659 30.6477C68.2841 31.0947 66.947 31.3182 65.4545 31.3182C63.3788 31.3182 61.5227 30.8485 59.8864 29.9091C58.2576 28.9697 56.9697 27.6098 56.0227 25.8295C55.0833 24.0492 54.6136 21.8939 54.6136 19.3636C54.6136 16.8258 55.0909 14.6667 56.0455 12.8864C57 11.1061 58.2955 9.75 59.9318 8.81818C61.5682 7.87879 63.4091 7.40909 65.4545 7.40909C66.803 7.40909 68.053 7.59848 69.2045 7.97727C70.3636 8.35606 71.3901 8.90909 72.2841 9.63636C73.178 10.3561 73.9053 11.2386 74.4659 12.2841C75.0341 13.3295 75.3977 14.5265 75.5568 15.875Z" fill="#175EE3"/>
<path d="M86.8807 31.3409C85.1155 31.3409 83.589 30.9659 82.3011 30.2159C81.0208 29.4583 80.0322 28.4053 79.3352 27.0568C78.6383 25.7008 78.2898 24.1288 78.2898 22.3409C78.2898 20.5379 78.6383 18.9621 79.3352 17.6136C80.0322 16.2576 81.0208 15.2045 82.3011 14.4545C83.589 13.697 85.1155 13.3182 86.8807 13.3182C88.6458 13.3182 90.1686 13.697 91.4489 14.4545C92.7367 15.2045 93.7292 16.2576 94.4261 17.6136C95.1231 18.9621 95.4716 20.5379 95.4716 22.3409C95.4716 24.1288 95.1231 25.7008 94.4261 27.0568C93.7292 28.4053 92.7367 29.4583 91.4489 30.2159C90.1686 30.9659 88.6458 31.3409 86.8807 31.3409ZM86.9034 27.5909C87.7064 27.5909 88.3769 27.3636 88.9148 26.9091C89.4527 26.447 89.858 25.8182 90.1307 25.0227C90.411 24.2273 90.5511 23.322 90.5511 22.3068C90.5511 21.2917 90.411 20.3864 90.1307 19.5909C89.858 18.7955 89.4527 18.1667 88.9148 17.7045C88.3769 17.2424 87.7064 17.0114 86.9034 17.0114C86.0928 17.0114 85.411 17.2424 84.858 17.7045C84.3125 18.1667 83.8996 18.7955 83.6193 19.5909C83.3466 20.3864 83.2102 21.2917 83.2102 22.3068C83.2102 23.322 83.3466 24.2273 83.6193 25.0227C83.8996 25.8182 84.3125 26.447 84.858 26.9091C85.411 27.3636 86.0928 27.5909 86.9034 27.5909Z" fill="#175EE3"/>
<path d="M98.6193 31V13.5455H103.233V16.625H103.438C103.801 15.6023 104.407 14.7955 105.256 14.2045C106.104 13.6136 107.119 13.3182 108.301 13.3182C109.498 13.3182 110.517 13.6174 111.358 14.2159C112.199 14.8068 112.759 15.6098 113.04 16.625H113.222C113.578 15.625 114.222 14.8258 115.153 14.2273C116.093 13.6212 117.203 13.3182 118.483 13.3182C120.112 13.3182 121.434 13.8371 122.449 14.875C123.472 15.9053 123.983 17.3674 123.983 19.2614V31H119.153V20.2159C119.153 19.2462 118.896 18.5189 118.381 18.0341C117.866 17.5492 117.222 17.3068 116.449 17.3068C115.57 17.3068 114.884 17.5871 114.392 18.1477C113.9 18.7008 113.653 19.4318 113.653 20.3409V31H108.96V20.1136C108.96 19.2576 108.714 18.5758 108.222 18.0682C107.737 17.5606 107.097 17.3068 106.301 17.3068C105.763 17.3068 105.278 17.4432 104.847 17.7159C104.422 17.9811 104.085 18.3561 103.835 18.8409C103.585 19.3182 103.46 19.8788 103.46 20.5227V31H98.6193Z" fill="#175EE3"/>
<path d="M127.807 37.5455V13.5455H132.58V16.4773H132.795C133.008 16.0076 133.314 15.5303 133.716 15.0455C134.125 14.553 134.655 14.1439 135.307 13.8182C135.966 13.4848 136.784 13.3182 137.761 13.3182C139.034 13.3182 140.208 13.6515 141.284 14.3182C142.36 14.9773 143.22 15.9735 143.864 17.3068C144.508 18.6326 144.83 20.2955 144.83 22.2955C144.83 24.2424 144.515 25.8864 143.886 27.2273C143.265 28.5606 142.417 29.572 141.341 30.2614C140.273 30.9432 139.076 31.2841 137.75 31.2841C136.811 31.2841 136.011 31.1288 135.352 30.8182C134.701 30.5076 134.167 30.1174 133.75 29.6477C133.333 29.1705 133.015 28.6894 132.795 28.2045H132.648V37.5455H127.807ZM132.545 22.2727C132.545 23.3106 132.689 24.2159 132.977 24.9886C133.265 25.7614 133.682 26.3636 134.227 26.7955C134.773 27.2197 135.436 27.4318 136.216 27.4318C137.004 27.4318 137.67 27.2159 138.216 26.7841C138.761 26.3447 139.174 25.7386 139.455 24.9659C139.742 24.1856 139.886 23.2879 139.886 22.2727C139.886 21.2652 139.746 20.3788 139.466 19.6136C139.186 18.8485 138.773 18.25 138.227 17.8182C137.682 17.3864 137.011 17.1705 136.216 17.1705C135.428 17.1705 134.761 17.3788 134.216 17.7955C133.678 18.2121 133.265 18.803 132.977 19.5682C132.689 20.3333 132.545 21.2348 132.545 22.2727Z" fill="#175EE3"/>
<path d="M156.398 31H148.148V7.72727H156.466C158.807 7.72727 160.822 8.19318 162.511 9.125C164.201 10.0492 165.5 11.3788 166.409 13.1136C167.326 14.8485 167.784 16.9242 167.784 19.3409C167.784 21.7652 167.326 23.8485 166.409 25.5909C165.5 27.3333 164.193 28.6705 162.489 29.6023C160.792 30.5341 158.761 31 156.398 31ZM153.068 26.7841H156.193C157.648 26.7841 158.871 26.5265 159.864 26.0114C160.864 25.4886 161.614 24.6818 162.114 23.5909C162.621 22.4924 162.875 21.0758 162.875 19.3409C162.875 17.6212 162.621 16.2159 162.114 15.125C161.614 14.0341 160.867 13.2311 159.875 12.7159C158.883 12.2008 157.659 11.9432 156.205 11.9432H153.068V26.7841Z" fill="#175EE3"/>
<path d="M179.224 31.3409C177.459 31.3409 175.933 30.9659 174.645 30.2159C173.365 29.4583 172.376 28.4053 171.679 27.0568C170.982 25.7008 170.634 24.1288 170.634 22.3409C170.634 20.5379 170.982 18.9621 171.679 17.6136C172.376 16.2576 173.365 15.2045 174.645 14.4545C175.933 13.697 177.459 13.3182 179.224 13.3182C180.99 13.3182 182.512 13.697 183.793 14.4545C185.08 15.2045 186.073 16.2576 186.77 17.6136C187.467 18.9621 187.815 20.5379 187.815 22.3409C187.815 24.1288 187.467 25.7008 186.77 27.0568C186.073 28.4053 185.08 29.4583 183.793 30.2159C182.512 30.9659 180.99 31.3409 179.224 31.3409ZM179.247 27.5909C180.05 27.5909 180.721 27.3636 181.259 26.9091C181.796 26.447 182.202 25.8182 182.474 25.0227C182.755 24.2273 182.895 23.322 182.895 22.3068C182.895 21.2917 182.755 20.3864 182.474 19.5909C182.202 18.7955 181.796 18.1667 181.259 17.7045C180.721 17.2424 180.05 17.0114 179.247 17.0114C178.437 17.0114 177.755 17.2424 177.202 17.7045C176.656 18.1667 176.243 18.7955 175.963 19.5909C175.69 20.3864 175.554 21.2917 175.554 22.3068C175.554 23.322 175.69 24.2273 175.963 25.0227C176.243 25.8182 176.656 26.447 177.202 26.9091C177.755 27.3636 178.437 27.5909 179.247 27.5909Z" fill="#175EE3"/>
<path d="M198.849 31.3409C197.062 31.3409 195.524 30.9621 194.236 30.2045C192.955 29.4394 191.971 28.3788 191.281 27.0227C190.599 25.6667 190.259 24.1061 190.259 22.3409C190.259 20.553 190.603 18.9848 191.293 17.6364C191.99 16.2803 192.978 15.2235 194.259 14.4659C195.539 13.7008 197.062 13.3182 198.827 13.3182C200.349 13.3182 201.683 13.5947 202.827 14.1477C203.971 14.7008 204.876 15.4773 205.543 16.4773C206.209 17.4773 206.577 18.6515 206.645 20H202.077C201.948 19.1288 201.607 18.428 201.054 17.8977C200.509 17.3598 199.793 17.0909 198.906 17.0909C198.156 17.0909 197.501 17.2955 196.94 17.7045C196.387 18.1061 195.955 18.6932 195.645 19.4659C195.334 20.2386 195.179 21.1742 195.179 22.2727C195.179 23.3864 195.33 24.3333 195.634 25.1136C195.944 25.8939 196.38 26.4886 196.94 26.8977C197.501 27.3068 198.156 27.5114 198.906 27.5114C199.459 27.5114 199.955 27.3977 200.395 27.1705C200.842 26.9432 201.209 26.6136 201.497 26.1818C201.793 25.7424 201.986 25.2159 202.077 24.6023H206.645C206.569 25.9356 206.206 27.1098 205.554 28.125C204.91 29.1326 204.02 29.9205 202.884 30.4886C201.747 31.0568 200.402 31.3409 198.849 31.3409Z" fill="#175EE3"/>
</svg>
