<svg width="256" height="256" viewBox="0 0 256 256" fill="none" xmlns="http://www.w3.org/2000/svg">
<g clip-path="url(#clip0_73_686)">
<path d="M213.66 82.34L157.66 26.34C156.917 25.5973 156.034 25.0084 155.063 24.6069C154.092 24.2054 153.051 23.9992 152 24H56C51.7565 24 47.6869 25.6857 44.6863 28.6863C41.6857 31.6869 40 35.7565 40 40V216C40 220.243 41.6857 224.313 44.6863 227.314C47.6869 230.314 51.7565 232 56 232H200C204.243 232 208.313 230.314 211.314 227.314C214.314 224.313 216 220.243 216 216V88C216.001 86.9491 215.795 85.9084 215.393 84.9372C214.992 83.966 214.403 83.0835 213.66 82.34ZM157.66 149.66C156.917 150.404 156.035 150.994 155.064 151.396C154.092 151.799 153.051 152.006 152 152.006C150.949 152.006 149.908 151.799 148.936 151.396C147.965 150.994 147.083 150.404 146.34 149.66L136 139.31V184C136 186.122 135.157 188.157 133.657 189.657C132.157 191.157 130.122 192 128 192C125.878 192 123.843 191.157 122.343 189.657C120.843 188.157 120 186.122 120 184V139.31L109.66 149.66C108.917 150.403 108.034 150.993 107.063 151.395C106.092 151.797 105.051 152.004 104 152.004C102.949 152.004 101.908 151.797 100.937 151.395C99.9657 150.993 99.0833 150.403 98.34 149.66C97.5967 148.917 97.0071 148.034 96.6049 147.063C96.2026 146.092 95.9956 145.051 95.9956 144C95.9956 142.949 96.2026 141.908 96.6049 140.937C97.0071 139.966 97.5967 139.083 98.34 138.34L122.34 114.34C123.083 113.596 123.965 113.006 124.936 112.604C125.908 112.201 126.949 111.994 128 111.994C129.051 111.994 130.092 112.201 131.064 112.604C132.035 113.006 132.917 113.596 133.66 114.34L157.66 138.34C158.404 139.083 158.994 139.965 159.396 140.936C159.799 141.908 160.006 142.949 160.006 144C160.006 145.051 159.799 146.092 159.396 147.064C158.994 148.035 158.404 148.917 157.66 149.66ZM152 88V44L196 88H152Z" fill="#9EBCF5"/>
</g>
<defs>
<clipPath id="clip0_73_686">
<rect width="256" height="256" fill="white"/>
</clipPath>
</defs>
</svg>
